HIERARCHY
ROOT Hips
{
	OFFSET 0.000000 0.000000 0.000000
	CHANNELS 6 Xposition Yposition Zposition Zrotation Yrotation Xrotation 
	JOINT LHipJoint
	{
		OFFSET 0.000000 0.000000 0.000000
		CHANNELS 3 Zrotation Yrotation Xrotation
		JOINT LeftUpLeg
		{
			OFFSET 1.363060 -1.794630 0.839290
			CHANNELS 3 Zrotation Yrotation Xrotation
			JOINT LeftLeg
			{
				OFFSET 2.448110 -6.726130 0.000000
				CHANNELS 3 Zrotation Yrotation Xrotation
				JOINT LeftFoot
				{
					OFFSET 2.562200 -7.039590 0.000000
					CHANNELS 3 Zrotation Yrotation Xrotation
					JOINT LeftToeBase
					{
						OFFSET 0.157640 -0.433110 2.322550
						CHANNELS 3 Zrotation Yrotation Xrotation
						End Site
						{
							OFFSET 0.000000 0.000000 0.000000
						}
					}
				}
			}
		}
	}
	JOINT RHipJoint
	{
		OFFSET 0.000000 0.000000 0.000000
		CHANNELS 3 Zrotation Yrotation Xrotation
		JOINT RightUpLeg
		{
			OFFSET -1.305520 -1.794630 0.839290
			CHANNELS 3 Zrotation Yrotation Xrotation
			JOINT RightLeg
			{
				OFFSET -2.542530 -6.985550 0.000000
				CHANNELS 3 Zrotation Yrotation Xrotation
				JOINT RightFoot
				{
					OFFSET -2.568260 -7.056230 0.000000
					CHANNELS 3 Zrotation Yrotation Xrotation
					JOINT RightToeBase
					{
						OFFSET -0.164730 -0.452590 2.363150
						CHANNELS 3 Zrotation Yrotation Xrotation
						End Site
						{
							OFFSET 0.000000 0.000000 0.000000
						}
					}
				}
			}
		}
	}
	JOINT LowerBack
	{
		OFFSET 0.000000 0.000000 0.000000
		CHANNELS 3 Zrotation Yrotation Xrotation
		JOINT Spine
		{
			OFFSET 0.028270 2.035590 -0.193380
			CHANNELS 3 Zrotation Yrotation Xrotation
			JOINT Spine1
			{
				OFFSET 0.056720 2.048850 -0.042750
				CHANNELS 3 Zrotation Yrotation Xrotation
				JOINT Neck
				{
					OFFSET 0.000000 0.000000 0.000000
					CHANNELS 3 Zrotation Yrotation Xrotation
					JOINT Neck1
					{
						OFFSET -0.054170 1.746240 0.172020
						CHANNELS 3 Zrotation Yrotation Xrotation
						JOINT Head
						{
							OFFSET 0.104070 1.761360 -0.123970
							CHANNELS 3 Zrotation Yrotation Xrotation
							End Site
							{
								OFFSET 0.000000 0.000000 0.000000
							}
						}
					}
				}
				JOINT LeftShoulder
				{
					OFFSET 0.000000 0.000000 0.000000
					CHANNELS 3 Zrotation Yrotation Xrotation
					JOINT LeftArm
					{
						OFFSET 3.362410 1.200890 -0.311210
						CHANNELS 3 Zrotation Yrotation Xrotation
						JOINT LeftForeArm
						{
							OFFSET 4.983000 -0.000000 -0.000000
							CHANNELS 3 Zrotation Yrotation Xrotation
							JOINT LeftHand
							{
								OFFSET 3.483560 -0.000000 -0.000000
								CHANNELS 3 Zrotation Yrotation Xrotation
								JOINT LeftFingerBase
								{
									OFFSET 0.000000 0.000000 0.000000
									CHANNELS 3 Zrotation Yrotation Xrotation
									JOINT LeftHandIndex1
									{
										OFFSET 0.715260 -0.000000 -0.000000
										CHANNELS 3 Zrotation Yrotation Xrotation
										End Site
										{
											OFFSET 0.000000 0.000000 0.000000
										}
									}
								}
								JOINT LThumb
								{
									OFFSET 0.000000 0.000000 0.000000
									CHANNELS 3 Zrotation Yrotation Xrotation
									End Site
									{
										OFFSET 0.000000 0.000000 0.000000
									}
								}
							}
						}
					}
				}
				JOINT RightShoulder
				{
					OFFSET 0.000000 0.000000 0.000000
					CHANNELS 3 Zrotation Yrotation Xrotation
					JOINT RightArm
					{
						OFFSET -3.136600 1.374050 -0.404650
						CHANNELS 3 Zrotation Yrotation Xrotation
						JOINT RightForeArm
						{
							OFFSET -5.241900 -0.000000 -0.000000
							CHANNELS 3 Zrotation Yrotation Xrotation
							JOINT RightHand
							{
								OFFSET -3.444170 -0.000000 -0.000000
								CHANNELS 3 Zrotation Yrotation Xrotation
								JOINT RightFingerBase
								{
									OFFSET 0.000000 0.000000 0.000000
									CHANNELS 3 Zrotation Yrotation Xrotation
									JOINT RightHandIndex1
									{
										OFFSET -0.622530 -0.000000 -0.000000
										CHANNELS 3 Zrotation Yrotation Xrotation
										End Site
										{
											OFFSET 0.000000 0.000000 0.000000
										}
									}
								}
								JOINT RThumb
								{
									OFFSET 0.000000 0.000000 0.000000
									CHANNELS 3 Zrotation Yrotation Xrotation
									End Site
									{
										OFFSET 0.000000 0.000000 0.000000
									}
								}
							}
						}
					}
				}
			}
		}
	}
}
MOTION
Frames: 6
Frame Time: 0.008333
-1.370572 16.965302 -0.198426 37.720760 84.992493 49.878227 -8.989462 1.001273 5.641555 -11.863240 -8.361764 -34.884360 -3.028975 -0.237425 13.383689 -0.775619 -5.352448 4.595542 -0.640200 -0.000000 -33.171000 10.737943 -4.673220 0.539115 6.245807 -9.164355 -1.419124 1.892061 -2.029678 26.998139 1.245355 15.534051 4.373739 2.614900 -0.000001 -64.117501 -3.812928 2.398784 -7.956584 -2.073331 2.375416 -4.216097 -7.490997 2.333205 1.863511 11.584009 -6.584960 -9.679946 -3.709483 -0.276919 -0.564996 0.000000 0.000000 0.000000 -2.861089 27.773805 0.880490 -63.146506 13.003135 -12.767876 -2.508657 -45.942782 0.011517 11.785219 0.248886 0.032232 -0.154155 -0.049798 -0.000000 0.000000 0.000000 0.000000 0.000000 0.000000 0.000000 18.742649 2.778546 -0.993042 69.307369 17.247439 7.244060 1.901131 53.802055 0.006182 -0.450934 7.847531 -0.033214 0.038744 -0.313798 -0.000000 0.000000 0.000000 0.000000 0.000000 0.000000 0.000000 
-1.207436 16.977325 -0.182364 40.640103 84.828202 52.517760 -8.917543 1.126408 5.542477 -12.546601 -7.972571 -34.185964 -3.085490 -0.198421 13.904283 -0.790116 -5.586163 4.217997 -0.658500 0.000000 -31.877000 10.992162 -4.711415 0.429944 5.469488 -10.065059 -2.341623 1.597240 -2.250391 29.448162 1.151995 15.854824 6.544747 3.263901 -0.000000 -66.798300 -4.062081 2.289833 -7.805973 -2.125831 2.299839 -4.188749 -7.513610 2.259519 1.852791 11.679938 -6.777983 -9.705539 -3.733247 -0.278444 -0.573791 0.000000 0.000000 0.000000 -2.740827 27.536308 0.857448 -63.197440 12.734844 -12.566292 -2.497147 -46.103293 0.010718 11.757275 0.359174 0.043431 -0.153889 -0.047440 -0.000000 0.000000 0.000000 0.000000 0.000000 0.000000 0.000000 19.025133 2.513865 -0.976925 69.798175 16.727784 6.774374 1.943231 53.050608 0.006148 -0.524868 7.842445 -0.038626 0.041308 -0.308688 -0.000000 0.000000 0.000000 0.000000 0.000000 0.000000 0.000000 
-1.046931 16.988859 -0.167505 42.897372 84.633756 54.518448 -8.861796 1.246796 5.450873 -13.173583 -7.565985 -33.464891 -3.144838 -0.170901 14.326670 -0.807074 -5.861444 3.774287 -0.676200 -0.000000 -30.408700 11.222681 -4.725638 0.319551 4.751558 -10.965295 -3.382817 1.292763 -2.451950 31.995111 1.026396 16.054173 8.856881 3.965300 -0.000000 -68.833700 -4.273157 2.180315 -7.658585 -2.167892 2.218855 -4.160418 -7.528355 2.180062 1.845819 11.759006 -6.979417 -9.739138 -3.754533 -0.279660 -0.584450 0.000000 0.000000 0.000000 -2.654892 27.304644 0.832043 -63.284636 12.438345 -12.338472 -2.482819 -46.301564 0.009946 11.727286 0.448226 0.052333 -0.153572 -0.044912 -0.000000 0.000000 0.000000 0.000000 0.000000 0.000000 0.000000 19.279973 2.235525 -0.959618 70.256371 16.234114 6.322322 1.982966 52.302986 0.006014 -0.631959 7.852459 -0.046538 0.044206 -0.303683 0.000000 0.000000 0.000000 0.000000 0.000000 0.000000 0.000000 
-0.889184 16.999870 -0.153220 44.663395 84.407944 56.054770 -8.811800 1.362672 5.373852 -13.752963 -7.184889 -32.717212 -3.207379 -0.156655 14.631304 -0.823079 -6.135166 3.293654 -0.685800 0.000000 -28.843800 11.437765 -4.709903 0.206761 4.075979 -11.860667 -4.540984 0.985180 -2.631810 34.624674 0.868983 16.085283 11.250818 4.674900 -0.000001 -70.109001 -4.466461 2.065541 -7.519187 -2.203524 2.129819 -4.131385 -7.535865 2.092157 1.845190 11.828059 -7.192450 -9.781663 -3.773853 -0.280604 -0.597349 0.000000 0.000000 0.000000 -2.590257 27.082279 0.804743 -63.408880 12.106124 -12.088761 -2.466415 -46.525857 0.009223 11.705621 0.506307 0.057937 -0.153236 -0.042145 -0.000000 0.000000 0.000000 0.000000 0.000000 0.000000 0.000000 19.518885 1.938471 -0.941691 70.679723 15.773050 5.903767 2.020410 51.560619 0.005780 -0.773400 7.879352 -0.057049 0.047450 -0.298802 0.000000 0.000000 0.000000 0.000000 0.000000 0.000000 0.000000 
-0.734077 17.010557 -0.139685 45.893902 84.162312 57.091206 -8.771864 1.471830 5.311462 -14.274407 -6.819979 -31.975260 -3.270227 -0.153310 14.842960 -0.838138 -6.407602 2.788446 -0.688300 0.000001 -27.276400 11.628419 -4.664647 0.099654 3.478596 -12.705059 -5.803919 0.684671 -2.788278 37.301238 0.683377 15.866838 13.642922 5.318000 0.000000 -70.606700 -4.629847 1.945669 -7.397168 -2.229987 2.031524 -4.103760 -7.536566 1.994406 1.849261 11.885259 -7.411294 -9.829539 -3.791754 -0.281388 -0.611338 0.000000 0.000000 0.000000 -2.553294 26.862402 0.775358 -63.565067 11.753538 -11.823239 -2.447578 -46.780412 0.008577 11.699876 0.528851 0.059943 -0.152881 -0.039206 -0.000000 0.000000 0.000000 0.000000 0.000000 0.000000 0.000000 19.739351 1.628097 -0.923292 71.066199 15.336504 5.523781 2.055762 50.826616 0.005479 -0.943166 7.923573 -0.069760 0.050965 -0.293995 0.000000 0.000000 0.000000 0.000000 0.000000 0.000000 0.000000 
-0.581647 17.021037 -0.126155 46.754826 83.891108 57.790963 -8.731019 1.575556 5.267341 -14.752927 -6.505499 -31.227436 -3.333531 -0.161989 14.945677 -0.848421 -6.631337 2.282812 -0.678200 -0.000000 -25.801200 11.803326 -4.586344 -0.004674 2.938468 -13.497184 -7.159113 0.398808 -2.923404 40.008326 0.475455 15.349835 15.928351 5.812900 0.000000 -70.271000 -4.784259 1.817159 -7.291816 -2.251720 1.922694 -4.076696 -7.531343 1.885639 1.861194 11.938171 -7.638831 -9.884166 -3.808618 -0.282015 -0.627011 0.000000 0.000000 0.000000 -2.526579 26.653070 0.744480 -63.754421 11.362503 -11.539935 -2.427919 -47.041017 0.008008 11.715010 0.508964 0.057651 -0.152552 -0.035987 -0.000000 0.000000 0.000000 0.000000 0.000000 0.000000 0.000000 19.953796 1.300107 -0.905484 71.415480 14.928934 5.194080 2.089023 50.100858 0.005131 -1.138799 7.982258 -0.084671 0.054710 -0.289229 0.000000 0.000000 0.000000 0.000000 0.000000 0.000000 0.000000 
